<svg width="61" height="66" viewBox="0 0 61 66" fill="none" xmlns="http://www.w3.org/2000/svg">
<g clip-path="url(#clip0_1_19)">
<path d="M29.2009 15.1495L29.4202 15.259L29.6411 15.1528L59.4882 0.800894C59.3712 4.72556 58.3914 7.4171 56.9064 9.41914C55.3151 11.5646 53.1062 12.9709 50.5993 14.241C49.7533 14.6695 48.8719 15.082 47.9727 15.5028C43.5924 17.5528 38.79 19.8004 35.6001 25.0698C34.1675 27.4362 33.8477 30.6625 33.9665 34.1703C34.0572 36.8475 34.408 39.7572 34.7578 42.6583C34.8675 43.5677 34.977 44.4762 35.0784 45.3764C35.5061 49.1736 35.7902 52.8299 35.3748 55.9149C34.9603 58.9927 33.862 61.4181 31.597 62.8674C30.7312 63.4214 29.9209 63.5765 29.1861 63.4787C28.4432 63.3798 27.7342 63.0162 27.0952 62.4608C25.8067 61.3407 24.8839 59.5087 24.6387 57.8852C24.3087 55.7009 24.3668 53.0769 24.5736 50.2183C24.6867 48.6555 24.8405 47.0605 24.9969 45.4388C25.1291 44.0673 25.2632 42.6766 25.376 41.2702C25.6194 38.238 25.7549 35.2166 25.5189 32.4552C25.283 29.6964 24.6734 27.1573 23.3962 25.1139C21.0054 21.2887 16.5472 19.3916 12.2789 17.5753L12.1958 17.5399C7.82423 15.6796 3.65986 13.8889 1.45177 10.3561L1.02778 10.6211L1.45177 10.3561C0.630527 9.04218 0.374575 7.30972 0.341973 5.4397C0.325784 4.51109 0.364492 3.56756 0.408093 2.6444C0.413147 2.53738 0.418274 2.43055 0.423386 2.324C0.448244 1.80595 0.472779 1.29462 0.487149 0.80235L29.2009 15.1495Z" fill="#ABF397" stroke="#27035D"/>
<path d="M18 9L19 10L18 9Z" fill="#1D1D1D"/>
<path d="M10.026 49.6441C9.78033 53.0204 9.54368 56.2722 9.50539 59.1973C2.5077 55.5234 0.166038 47.857 -0.360974 39.1455C-0.632312 34.6603 -0.419186 29.9454 -0.136005 25.4351C-0.0756636 24.474 -0.0120631 23.5214 0.0506469 22.5821C0.260695 19.4359 0.460752 16.4394 0.494891 13.7759C7.7197 17.2753 10.0633 24.7702 10.5348 33.4422C10.7773 37.9026 10.521 42.6268 10.2015 47.2006C10.1442 48.0204 10.0849 48.8358 10.026 49.6441ZM49.3919 33.1905C49.8423 24.1176 52.2052 16.3946 59.5042 13.6982C59.5359 16.4078 59.7429 19.4544 59.96 22.6496C60.0222 23.5661 60.0853 24.4949 60.1454 25.4314C60.4337 29.9299 60.653 34.6258 60.3858 39.0961C59.8669 47.7764 57.5263 55.4348 50.4935 59.1911C50.4522 56.5186 50.2184 53.4102 49.97 50.1069C49.9035 49.2234 49.836 48.3259 49.7709 47.4191C49.4361 42.7591 49.1614 37.8326 49.3919 33.1905Z" fill="#ABF397" stroke="#27035D"/>
<path d="M58 52L59 53L58 52Z" fill="#252525"/>
<path d="M52 58L53 59L52 58Z" fill="#1B1B1B"/>
</g>
<defs>
<clipPath id="clip0_1_19">
<rect width="61" height="66" fill="white"/>
</clipPath>
</defs>
</svg>
